/* XPM */
static char * LimeWire_xpm[] = {
"33 33 121 2",
"  	c None",
". 	c #C7C9D1",
"+ 	c #74B898",
"@ 	c #54B888",
"# 	c #44B874",
"$ 	c #30A864",
"% 	c #30B864",
"& 	c #44A874",
"* 	c #98B8A8",
"= 	c #10A854",
"- 	c #109854",
"; 	c #209854",
"> 	c #20A864",
", 	c #88B8A8",
"' 	c #A8CCB8",
") 	c #98B8B8",
"! 	c #00B854",
"~ 	c #449864",
"{ 	c #208854",
"] 	c #309864",
"^ 	c #10A844",
"/ 	c #009844",
"( 	c #00A854",
"_ 	c #00A844",
": 	c #448864",
"< 	c #549874",
"[ 	c #108854",
"} 	c #10B854",
"| 	c #20B854",
"1 	c #30B854",
"2 	c #30B874",
"3 	c #20B864",
"4 	c #008830",
"5 	c #309844",
"6 	c #44B864",
"7 	c #54B864",
"8 	c #74CC44",
"9 	c #88DC44",
"0 	c #64CC44",
"a 	c #64B854",
"b 	c #54A830",
"c 	c #30A844",
"d 	c #44B844",
"e 	c #88B830",
"f 	c #A8DC44",
"g 	c #A8CC44",
"h 	c #74B864",
"i 	c #98CC30",
"j 	c #CCDC44",
"k 	c #CCDC30",
"l 	c #A8CC30",
"m 	c #88CC64",
"n 	c #88B864",
"o 	c #B8DC20",
"p 	c #B8CC30",
"q 	c #B8DC54",
"r 	c #A8CC74",
"s 	c #DCDC20",
"t 	c #ECEC20",
"u 	c #CCDC20",
"v 	c #B8DC44",
"w 	c #ECEC00",
"x 	c #A8CC64",
"y 	c #FFFF10",
"z 	c #FFFF00",
"A 	c #A8B864",
"B 	c #20A844",
"C 	c #30A874",
"D 	c #54A874",
"E 	c #B8CC74",
"F 	c #CCDC64",
"G 	c #DCEC10",
"H 	c #44CC74",
"I 	c #74CC64",
"J 	c #A8DC54",
"K 	c #CCEC30",
"L 	c #CCDC88",
"M 	c #B8CC54",
"N 	c #DCEC74",
"O 	c #DCEC54",
"P 	c #B8DC74",
"Q 	c #FFEC00",
"R 	c #ECFF44",
"S 	c #108844",
"T 	c #549854",
"U 	c #B8DC88",
"V 	c #54A864",
"W 	c #54CC88",
"X 	c #98DC98",
"Y 	c #88A898",
"Z 	c #54CC44",
"` 	c #CCCC20",
" .	c #64B898",
"..	c #CCCC30",
"+.	c #30B844",
"@.	c #98CC98",
"#.	c #64CC98",
"$.	c #74DCA8",
"%.	c #308844",
"&.	c #88DCA8",
"*.	c #CCECDC",
"=.	c #98ECB8",
"-.	c #20B844",
";.	c #DCEC98",
">.	c #ECEC64",
",.	c #74A898",
"'.	c #30CC64",
").	c #A8B844",
"!.	c #A8DC74",
"~.	c #DCEC20",
"{.	c #208844",
"].	c #DCDC10",
"^.	c #107430",
"/.	c #88A8A8",
"(.	c #98A8A8",
"_.	c #A8DC64",
":.	c #007430",
"<.	c #749888",
"[.	c #207444",
"}.	c #649874",
"|.	c #307454",
". . . . . . . . . . . . + @ # $ % % & @ + . . . . . . . . . . . . ",
". . . . . . . . . * @ = = - = ; = ; = ; = > , ' . . . . . . . . . ",
". . . . . . . ) # ! = & ~ { { { ; { ] ~ & $ = ^ , ' . . . . . . . ",
". . . . . . * = > & ] ] ] - / ( / _ _ > ] ; & & ; = * . . . . . . ",
". . . . . + = $ : < [ / % } } | 1 | } 2 3 4 ] : ~ ; ; * . . . . . ",
". . . . + = ] ] 5 6 7 ; 7 6 8 8 9 0 a 7 $ 5 7 b c ] & > * . . . . ",
". . . * = ] ~ d e f g h a i f j k l 9 m a n g 9 8 d c ] ; * . . . ",
". . ' > > { b 9 o p k q n r k s t s j m n p u k v i d $ > $ * . . ",
". . & = ] c 9 p k t w s x x y z z z k A g t y t u f 8 B C ; , . . ",
". ' / D # d 9 k z z z y j E t z z y F r k z z z G k f 6 H & / ) . ",
". & = ] & I J K z z z z s L j z z y L M w z z z z k J I C $ = ~ . ",
". = C ] / # r j t z z z G x N K w O P g t z z Q R F m c / C % S . ",
". - D ] $ T a r O t t u k g U q p N x i k w t O F m V & $ & & - . ",
"+ - ~ - > 6 n n r U N F m d W r m X c 0 v N N E x n e 6 = - D - Y ",
"$ - > ( ^ Z g ` k k F L U H ^  .W # 3 X L N j k k ..i Z = ( 2 > ] ",
"; ; ; ! +.9 v w z z w k M @.W #.$.@ $.@.M k Q z z t J 8 +.( 3 $ %.",
"; $ $ _ 1 i k z z z z G p 8 @ &.*.$.7 9 k w z z z t k 9 1 ( 2 $ { ",
"; > $ _ 1 9 v t z z y O N =.@ W $.@ #.L N R y y z t v 8 -.( % $ 5 ",
"] ; C ( ^ Z f K t O N L U c > $.W W ^ h L ;.>.O R j f 0 ^ ( 2 ] { ",
",.> @ } '.@ r E P E F ).i 0 I r m U I 8 g v E F E !.r 7 '.3 W - ,.",
". - W # 2 7 h n M k w ~.k f ;.M p L P i ~.t w k m n a 7 2 W #.S . ",
"' {.# > / c n M ].z z z ~.F ;.~.w O ;.K t z z z t M h > / H 3 ^.. ",
". ,.; $ ] h J G z z z z y L j y z t N N w z z z z K J 7 C & ; /.. ",
". ' S @ & d 9 K w z z z R F s z z z j L y z z z G k 9 d W # ^.. . ",
". ) ] $ #.1 8 v ~.t y O P x t z z z ~.r F y z t ~.q 8 6 W ; Y . . ",
". . (.S @ W Z i v k K F n x ~.t y t O r m O K k v i Z W C S ) . . ",
". . . Y S #.#.Z 8 i _.m 0 m J k k v f m a m J f 8 Z W H S * . . . ",
". . . . Y {.#.$.6 Z #.% 7 a 8 9 i 9 0 I 6 2 I d 1 W W S Y . . . . ",
". . . . . ,.S #.&.W $ / 2 > -.d Z 1 ^ 2 3 _ H W W H S /.. . . . . ",
". . . . . . Y :.& W 2 % 2 ! ( ! } ! ( 3 2 3 H W C ^.Y . . . . . . ",
". . . . . . . (.,.S ; # #.H '.3 3 '.'.#.$.# ; :.Y ) . . . . . . . ",
". . . . . . . . . * <.[.S $ % 2 2 2 2 > S [.,.* . . . . . . . . . ",
". . . . . . . . . . . ) . }.|.[.[.[.|.< ' ) . . . . . . . . . . . "};
